<svg xmlns="http://www.w3.org/2000/svg" xmlns:xlink="http://www.w3.org/1999/xlink" xmlns:lucid="lucid" width="1722" height="1579"><g transform="translate(-59 -40)" lucid:page-tab-id="~FKfCb7boIF7"><path d="M82 1280h1676" fill="none"/><path d="M82 1280h6m7.97 0h11.97m7.98 0h11.97m7.97 0h11.97m7.98 0h11.98m7.98 0h11.97m7.98 0h11.97m7.98 0h11.97m7.98 0h11.97m8 0h11.96m7.98 0h11.97m8 0h11.96m7.98 0h11.97m8 0h11.97m7.98 0h11.97m7.98 0h11.97m7.98 0h11.97m7.98 0h11.98m7.98 0h11.97m7.98 0h11.98m7.98 0h11.97m7.98 0h12m7.97 0h11.97m7.98 0h11.97m7.97 0h11.97m7.98 0h11.98m7.98 0h11.97m7.98 0h11.97m7.98 0h11.97m7.98 0h11.97m8 0h11.96m7.98 0h11.97m8 0h11.96m7.98 0h11.97m8 0h11.97m7.98 0h11.97m7.98 0h11.97m7.98 0h11.97m7.98 0h11.98m7.98 0h11.97m7.98 0h11.98m7.98 0h11.97m7.98 0h12m7.97 0h11.97m7.98 0h11.97m7.97 0h11.97m7.98 0h11.98m7.98 0h11.97m7.98 0h11.97m7.98 0h11.97m7.98 0h11.97m8 0h11.96m7.98 0h11.97m8 0h11.96m7.98 0h11.97m8 0h11.97m7.98 0h11.97m7.98 0h11.97m7.98 0h11.97m7.98 0h11.98m7.98 0h11.97m7.98 0h11.98m7.98 0h11.97m7.98 0h12m7.97 0h11.97m7.98 0h11.97m7.97 0h11.97m7.98 0h11.98m7.98 0h11.97m7.98 0h11.97m7.98 0h11.97m7.98 0h11.97m8 0h11.96m7.98 0h11.97m8 0h11.96m7.98 0h11.97m8 0h11.97m7.98 0h11.97m7.98 0h11.97m7.98 0h11.97m7.98 0h11.98m7.98 0h11.97m7.98 0h11.98m7.98 0h11.97m7.98 0h6M82.05 1280H80M1757.95 1280h2.05" stroke="#666" stroke-width="4" fill="none"/><use xlink:href="#a" transform="matrix(1,0,0,1,88.48333333333332,1254.4) translate(0 14.4)"/><use xlink:href="#b" transform="matrix(1,0,0,1,88.48333333333332,1254.4) translate(75.85000000000001 14.4)"/><path d="M720 1240h240v80H720z" stroke="#000" stroke-width="2" fill="#fff"/><use xlink:href="#c" transform="matrix(1,0,0,1,725,1245) translate(50.099999999999994 27.525)"/><use xlink:href="#d" transform="matrix(1,0,0,1,725,1245) translate(113.05 27.525)"/><use xlink:href="#e" transform="matrix(1,0,0,1,725,1245) translate(100.025 49.125)"/><path d="M740 1587c0 6.63-26.86 12-60 12s-60-5.37-60-12v-96c0-6.63 26.86-12 60-12s60 5.37 60 12z" stroke="#000" stroke-width="2" fill="#fff"/><path d="M740 1491c0 6.63-26.86 12-60 12s-60-5.37-60-12" stroke="#000" stroke-width="2" fill="none"/><use xlink:href="#f" transform="matrix(1,0,0,1,625,1508) translate(23.525 35.9)"/><use xlink:href="#g" transform="matrix(1,0,0,1,625,1508) translate(28.049999999999997 57.5)"/><path d="M400 1240h240v80H400z" stroke="#000" stroke-width="2" fill="#fff"/><use xlink:href="#h" transform="matrix(1,0,0,1,405,1245) translate(22.57499999999999 16.5875)"/><use xlink:href="#i" transform="matrix(1,0,0,1,405,1245) translate(85.57499999999999 16.5875)"/><use xlink:href="#j" transform="matrix(1,0,0,1,405,1245) translate(102.57499999999999 16.5875)"/><use xlink:href="#d" transform="matrix(1,0,0,1,405,1245) translate(81.57499999999999 38.1875)"/><use xlink:href="#k" transform="matrix(1,0,0,1,405,1245) translate(96.05 59.7875)"/><path d="M1220 1587c0 6.63-26.86 12-60 12s-60-5.37-60-12v-96c0-6.63 26.86-12 60-12s60 5.37 60 12z" stroke="#000" stroke-width="2" fill="#fff"/><path d="M1220 1491c0 6.63-26.86 12-60 12s-60-5.37-60-12" stroke="#000" stroke-width="2" fill="none"/><use xlink:href="#f" transform="matrix(1,0,0,1,1105,1508) translate(23.525 35.9)"/><use xlink:href="#l" transform="matrix(1,0,0,1,1105,1508) translate(24.049999999999997 57.5)"/><path d="M1040 1240h240v80h-240z" stroke="#000" stroke-width="2" fill="#fff"/><use xlink:href="#m" transform="matrix(1,0,0,1,1045,1245) translate(53.574999999999996 27.525)"/><use xlink:href="#d" transform="matrix(1,0,0,1,1045,1245) translate(109.57499999999999 27.525)"/><use xlink:href="#n" transform="matrix(1,0,0,1,1045,1245) translate(71.55 49.125)"/><use xlink:href="#o" transform="matrix(1,0,0,1,1045,1245) translate(107.55 49.125)"/><path d="M80 819h240v80H80z" stroke="#000" stroke-width="2" fill="#fff"/><use xlink:href="#c" transform="matrix(1,0,0,1,85,824) translate(38.625 27.525)"/><use xlink:href="#p" transform="matrix(1,0,0,1,85,824) translate(101.575 27.525)"/><use xlink:href="#q" transform="matrix(1,0,0,1,85,824) translate(173.425 27.525)"/><use xlink:href="#r" transform="matrix(1,0,0,1,85,824) translate(91.34567901234567 48.94722222222222)"/><path d="M1520 820h240v80h-240z" stroke="#000" stroke-width="2" fill="#fff"/><use xlink:href="#h" transform="matrix(1,0,0,1,1525,825) translate(22.57499999999999 16.5875)"/><use xlink:href="#i" transform="matrix(1,0,0,1,1525,825) translate(85.57499999999999 16.5875)"/><use xlink:href="#j" transform="matrix(1,0,0,1,1525,825) translate(102.57499999999999 16.5875)"/><use xlink:href="#p" transform="matrix(1,0,0,1,1525,825) translate(70.1 38.1875)"/><use xlink:href="#q" transform="matrix(1,0,0,1,1525,825) translate(141.95 38.1875)"/><use xlink:href="#s" transform="matrix(1,0,0,1,1525,825) translate(87.41975308641975 59.609722222222224)"/><path d="M1120 300h240v80h-240z" stroke="#000" stroke-width="2" fill="#fff"/><use xlink:href="#t" transform="matrix(1,0,0,1,1125,305) translate(64.57499999999999 27.525)"/><use xlink:href="#q" transform="matrix(1,0,0,1,1125,305) translate(147.475 27.525)"/><use xlink:href="#u" transform="matrix(1,0,0,1,1125,305) translate(92.82716049382717 48.94722222222222)"/><path d="M82 480h1676" fill="none"/><path d="M82 480h6m7.97 0h11.97m7.98 0h11.97m7.97 0h11.97m7.98 0h11.98m7.98 0h11.97m7.98 0h11.97m7.98 0h11.97m7.98 0h11.97m8 0h11.96m7.98 0h11.97m8 0h11.96m7.98 0h11.97m8 0h11.97m7.98 0h11.97m7.98 0h11.97m7.98 0h11.97m7.98 0h11.98m7.98 0h11.97m7.98 0h11.98m7.98 0h11.97m7.98 0h12m7.97 0h11.97m7.98 0h11.97m7.97 0h11.97m7.98 0h11.98m7.98 0h11.97m7.98 0h11.97m7.98 0h11.97m7.98 0h11.97m8 0h11.96m7.98 0h11.97m8 0h11.96m7.98 0h11.97m8 0h11.97m7.98 0h11.97m7.98 0h11.97m7.98 0h11.97m7.98 0h11.98m7.98 0h11.97m7.98 0h11.98m7.98 0h11.97m7.98 0h12m7.97 0h11.97m7.98 0h11.97m7.97 0h11.97m7.98 0h11.98m7.98 0h11.97m7.98 0h11.97m7.98 0h11.97m7.98 0h11.97m8 0h11.96m7.98 0h11.97m8 0h11.96m7.98 0h11.97m8 0h11.97m7.98 0h11.97m7.98 0h11.97m7.98 0h11.97m7.98 0h11.98m7.98 0h11.97m7.98 0h11.98m7.98 0h11.97m7.98 0h12m7.97 0h11.97m7.98 0h11.97m7.97 0h11.97m7.98 0h11.98m7.98 0h11.97m7.98 0h11.97m7.98 0h11.97m7.98 0h11.97m8 0h11.96m7.98 0h11.97m8 0h11.96m7.98 0h11.97m8 0h11.97m7.98 0h11.97m7.98 0h11.97m7.98 0h11.97m7.98 0h11.98m7.98 0h11.97m7.98 0h11.98m7.98 0h11.97m7.98 0h6M82.05 480H80M1757.95 480h2.05" stroke="#666" stroke-width="4" fill="none"/><use xlink:href="#a" transform="matrix(1,0,0,1,98.45833333333331,454.3999999999999) translate(0 14.4)"/><use xlink:href="#v" transform="matrix(1,0,0,1,98.45833333333331,454.3999999999999) translate(75.85000000000001 14.4)"/><path d="M808 186c-26.5 0-48-16.12-48-36 0-15.9 13-29.32 33.17-34.24C792 69 872 60 904 78c16-27 96-18 96 9 48-9 96 27 64 72 32 36 0 81-64 63-16 23.4-80 23.4-96 0-32 18-96 9-96-36z" stroke="#000" stroke-width="2" fill="#fff"/><use xlink:href="#w" transform="matrix(1,0,0,1,765,65) translate(119.525 88.775)"/><path d="M728 1379c17.67 0 32 13.43 32 30s-14.33 30-32 30h-96c-17.67 0-32-13.43-32-30s14.33-30 32-30z" stroke="#000" stroke-width="2" fill="#fff"/><use xlink:href="#x" transform="matrix(1,0,0,1,605,1384) translate(29.575000000000003 30.025)"/><use xlink:href="#y" transform="matrix(1,0,0,1,605,1384) translate(79.575 30.025)"/><path d="M840 1322v87h-60.5" stroke="#000" stroke-width="2" fill="none"/><path d="M841 1322.03h-2V1321h2z"/><path d="M764.24 1409l14.26-4.64v9.28z" stroke="#000" stroke-width="2"/><path d="M520 1322v87h60.5" stroke="#000" stroke-width="2" fill="none"/><path d="M521 1322.03h-2V1321h2z"/><path d="M595.76 1409l-14.26 4.64v-9.28z" stroke="#000" stroke-width="2"/><path d="M680 1477v-18.5" stroke="#000" stroke-width="2" fill="none"/><path d="M681 1478.04l-1-.04-1 .03v-1.06h2z"/><path d="M680 1443.24l4.64 14.26h-9.28z" stroke="#000" stroke-width="2"/><path d="M1208 1379c17.67 0 32 13.43 32 30s-14.33 30-32 30h-96c-17.67 0-32-13.43-32-30s14.33-30 32-30z" stroke="#000" stroke-width="2" fill="#fff"/><use xlink:href="#z" transform="matrix(1,0,0,1,1085,1384) translate(52.5 30.025)"/><path d="M1160 1477v-18.5" stroke="#000" stroke-width="2" fill="none"/><path d="M1161 1478.04l-1-.04-1 .03v-1.06h2z"/><path d="M1160 1443.24l4.64 14.26h-9.28z" stroke="#000" stroke-width="2"/><path d="M1160 1322v37.5" stroke="#000" stroke-width="2" fill="none"/><path d="M1161 1322.03h-2V1321h2z"/><path d="M1160 1374.76l-4.64-14.26h9.28z" stroke="#000" stroke-width="2"/><path d="M80 560h1680v80H80z" stroke="#000" stroke-width="2" fill="#fff"/><use xlink:href="#A" transform="matrix(1,0,0,1,85,565) translate(776.075 27.525)"/><use xlink:href="#B" transform="matrix(1,0,0,1,85,565) translate(847.975 27.525)"/><use xlink:href="#C" transform="matrix(1,0,0,1,85,565) translate(768.4074074074074 48.94722222222222)"/><use xlink:href="#D" transform="matrix(1,0,0,1,85,565) translate(803.9629629629629 48.94722222222222)"/><path d="M1288 200c17.67 0 32 13.43 32 30s-14.33 30-32 30h-96c-17.67 0-32-13.43-32-30s14.33-30 32-30z" stroke="#000" stroke-width="2" fill="#fff"/><use xlink:href="#E" transform="matrix(1,0,0,1,1165,205) translate(57.5 30.025)"/><path d="M968 450c17.67 0 32 13.43 32 30s-14.33 30-32 30h-96c-17.67 0-32-13.43-32-30s14.33-30 32-30z" stroke="#000" stroke-width="2" fill="#fff"/><use xlink:href="#E" transform="matrix(1,0,0,1,845,455) translate(57.5 30.025)"/><path d="M920 558v-28.5" stroke="#000" stroke-width="2" fill="none"/><path d="M921 559h-2v-1.03h2z"/><path d="M920 514.24l4.64 14.26h-9.28z" stroke="#000" stroke-width="2"/><path d="M920 235.92V430.5" stroke="#000" stroke-width="2" fill="none"/><path d="M920.15 234.98l.85.32v.64h-2v-1.46z"/><path d="M920 445.76l-4.64-14.26h9.28z" stroke="#000" stroke-width="2"/><path d="M248 719c17.67 0 32 13.43 32 30s-14.33 30-32 30h-96c-17.67 0-32-13.43-32-30s14.33-30 32-30z" stroke="#000" stroke-width="2" fill="#fff"/><use xlink:href="#E" transform="matrix(1,0,0,1,125,724) translate(57.5 30.025)"/><path d="M200 817v-18.5" stroke="#000" stroke-width="2" fill="none"/><path d="M201 818h-2v-1.03h2z"/><path d="M200 783.24l4.64 14.26h-9.28z" stroke="#000" stroke-width="2"/><path d="M1688 720c17.67 0 32 13.43 32 30s-14.33 30-32 30h-96c-17.67 0-32-13.43-32-30s14.33-30 32-30z" stroke="#000" stroke-width="2" fill="#fff"/><use xlink:href="#E" transform="matrix(1,0,0,1,1565,725) translate(57.5 30.025)"/><path d="M1640 818v-18.5" stroke="#000" stroke-width="2" fill="none"/><path d="M1641 819h-2v-1.03h2z"/><path d="M1640 784.24l4.64 14.26h-9.28z" stroke="#000" stroke-width="2"/><path d="M568 1020c17.67 0 32 13.43 32 30s-14.33 30-32 30h-96c-17.67 0-32-13.43-32-30s14.33-30 32-30z" stroke="#000" stroke-width="2" fill="#fff"/><use xlink:href="#E" transform="matrix(1,0,0,1,445,1025) translate(57.5 30.025)"/><path d="M888 1020c17.67 0 32 13.43 32 30s-14.33 30-32 30h-96c-17.67 0-32-13.43-32-30s14.33-30 32-30z" stroke="#000" stroke-width="2" fill="#fff"/><use xlink:href="#E" transform="matrix(1,0,0,1,765,1025) translate(57.5 30.025)"/><path d="M840 1238v-138.5" stroke="#000" stroke-width="2" fill="none"/><path d="M841 1239h-2v-1.03h2z"/><path d="M840 1084.24l4.64 14.26h-9.28z" stroke="#000" stroke-width="2"/><path d="M520 1238v-138.5" stroke="#000" stroke-width="2" fill="none"/><path d="M521 1239h-2v-1.03h2z"/><path d="M520 1084.24l4.64 14.26h-9.28z" stroke="#000" stroke-width="2"/><path d="M1308 1020c17.67 0 32 13.43 32 30s-14.33 30-32 30h-96c-17.67 0-32-13.43-32-30s14.33-30 32-30z" stroke="#000" stroke-width="2" fill="#fff"/><use xlink:href="#E" transform="matrix(1,0,0,1,1185,1025) translate(57.5 30.025)"/><path d="M1260 1238v-138.5" stroke="#000" stroke-width="2" fill="none"/><path d="M1261 1239h-2v-1.03h2z"/><path d="M1260 1084.24l4.64 14.26h-9.28z" stroke="#000" stroke-width="2"/><path d="M1108 1020c17.67 0 32 13.43 32 30s-14.33 30-32 30h-96c-17.67 0-32-13.43-32-30s14.33-30 32-30z" stroke="#000" stroke-width="2" fill="#fff"/><use xlink:href="#F" transform="matrix(1,0,0,1,985,1025) translate(52.5 30.025)"/><path d="M1240 298v-18.5" stroke="#000" stroke-width="2" fill="none"/><path d="M1241 299h-2v-1.03h2z"/><path d="M1240 264.24l4.64 14.26h-9.28z" stroke="#000" stroke-width="2"/><path d="M1071.5 150H1240v30.5" stroke="#000" stroke-width="2" fill="none"/><path d="M1071.53 151h-1.5l.1-.17.84-1.83h.56z"/><path d="M1240 195.76l-4.64-14.26h9.28z" stroke="#000" stroke-width="2"/><path d="M1240 382v33H953.33v15.5" stroke="#000" stroke-width="2" fill="none"/><path d="M1241 382.03h-2V381h2z"/><path d="M953.33 445.76l-4.63-14.26h9.27z" stroke="#000" stroke-width="2"/><path d="M1638.67 642v58.5" stroke="#000" stroke-width="2" fill="none"/><path d="M1639.67 642.03h-2V641h2z"/><path d="M1638.67 715.76l-4.64-14.26h9.27z" stroke="#000" stroke-width="2"/><path d="M200 642v57.5" stroke="#000" stroke-width="2" fill="none"/><path d="M201 642.03h-2V641h2z"/><path d="M200 714.76l-4.64-14.26h9.28z" stroke="#000" stroke-width="2"/><path d="M520 642v358.5" stroke="#000" stroke-width="2" fill="none"/><path d="M521 642.03h-2V641h2z"/><path d="M520 1015.76l-4.64-14.26h9.28z" stroke="#000" stroke-width="2"/><use xlink:href="#G" transform="matrix(1,0,0,1,404.04999999999995,976.1720670391062) translate(0 14.4)"/><use xlink:href="#H" transform="matrix(1,0,0,1,404.04999999999995,976.1720670391062) translate(30 14.4)"/><path d="M840 642v358.5" stroke="#000" stroke-width="2" fill="none"/><path d="M841 642.03h-2V641h2z"/><path d="M840 1015.76l-4.64-14.26h9.28z" stroke="#000" stroke-width="2"/><use xlink:href="#I" transform="matrix(1,0,0,1,717.0500000000002,977.5798882681565) translate(0 14.4)"/><use xlink:href="#H" transform="matrix(1,0,0,1,717.0500000000002,977.5798882681565) translate(37 14.4)"/><path d="M540 600h100v60H540z" stroke="#000" stroke-width="2" fill="#fff"/><use xlink:href="#J" transform="matrix(1,0,0,1,545,605) translate(4.599999999999994 17.525)"/><use xlink:href="#K" transform="matrix(1,0,0,1,545,605) translate(27 39.125)"/><path d="M720 600h100v60H720z" stroke="#000" stroke-width="2" fill="#fff"/><use xlink:href="#J" transform="matrix(1,0,0,1,725,605) translate(4.599999999999994 17.525)"/><use xlink:href="#L" transform="matrix(1,0,0,1,725,605) translate(30.025 39.125)"/><path d="M1280 600h100v60h-100z" stroke="#000" stroke-width="2" fill="#fff"/><use xlink:href="#J" transform="matrix(1,0,0,1,1285,605) translate(4.599999999999994 17.525)"/><use xlink:href="#M" transform="matrix(1,0,0,1,1285,605) translate(4.074999999999996 39.125)"/><use xlink:href="#N" transform="matrix(1,0,0,1,1285,605) translate(38.025 39.125)"/><path d="M80 600h100v60H80z" stroke="#000" stroke-width="2" fill="#fff"/><g><use xlink:href="#J" transform="matrix(1,0,0,1,85,605) translate(4.599999999999994 17.525)"/><use xlink:href="#O" transform="matrix(1,0,0,1,85,605) translate(21.049999999999997 39.125)"/></g><path d="M1660 600h100v60h-100z" stroke="#000" stroke-width="2" fill="#fff"/><g><use xlink:href="#J" transform="matrix(1,0,0,1,1665,605) translate(4.599999999999994 17.525)"/><use xlink:href="#P" transform="matrix(1,0,0,1,1665,605) translate(18.025 39.125)"/></g><path d="M1010 520h100v60h-100z" stroke="#000" stroke-width="2" fill="#fff"/><g><use xlink:href="#J" transform="matrix(1,0,0,1,1015,525) translate(4.599999999999994 17.799999999999997)"/><use xlink:href="#Q" transform="matrix(1,0,0,1,1015,525) translate(-1.4750000000000014 39.4)"/></g><path d="M1058 1238v-138.5" stroke="#000" stroke-width="2" fill="none"/><path d="M1059 1239h-2v-1.03h2z"/><path d="M1058 1084.24l4.64 14.26h-9.28z" stroke="#000" stroke-width="2"/><path d="M940 1238V979h120v21.5" stroke="#000" stroke-width="2" fill="none"/><path d="M941 1239h-2v-1.03h2z"/><path d="M1060 1015.76l-4.64-14.26h9.28z" stroke="#000" stroke-width="2"/><path d="M621.33 1238V920H835c0-2.76 2.24-5 5-5s5 2.24 5 5h243v80.5" stroke="#000" stroke-width="2" fill="none"/><path d="M622.33 1239h-2v-1.03h2z"/><path d="M1088 1015.76l-4.64-14.26h9.28z" stroke="#000" stroke-width="2"/><path d="M1260 1000.5V642" stroke="#000" stroke-width="2" fill="none"/><path d="M1260 1015.76l-4.64-14.26h9.28z" stroke="#000" stroke-width="2"/><path d="M1261 642.03h-2V641h2z"/><g><use xlink:href="#R" transform="matrix(1,0,0,1,1268.0000000000002,974.7642458100561) translate(0 14.4)"/><use xlink:href="#H" transform="matrix(1,0,0,1,1268.0000000000002,974.7642458100561) translate(66 14.4)"/></g><path d="M80 960h240v81H80z" stroke="#000" stroke-width="2" fill="#fff"/><g><use xlink:href="#S" transform="matrix(1,0,0,1,85,965) translate(39.07499999999999 27.7125)"/><use xlink:href="#T" transform="matrix(1,0,0,1,85,965) translate(130.975 27.7125)"/><use xlink:href="#U" transform="matrix(1,0,0,1,85,965) translate(91.25 49.3125)"/></g><path d="M248 1102c17.67 0 32 13.43 32 30s-14.33 30-32 30h-96c-17.67 0-32-13.43-32-30s14.33-30 32-30z" stroke="#000" stroke-width="2" fill="#fff"/><g><use xlink:href="#V" transform="matrix(1,0,0,1,125,1107) translate(52.5 30.025)"/></g><path d="M200 1043v39.5" stroke="#000" stroke-width="2" fill="none"/><path d="M201 1043.03h-2V1042h2z"/><path d="M200 1097.76l-4.64-14.26h9.28z" stroke="#000" stroke-width="2"/><path d="M424 1238v-37H200v-19.5" stroke="#000" stroke-width="2" fill="none"/><path d="M425 1239h-2v-1.03h2z"/><path d="M200 1166.24l4.64 14.26h-9.28z" stroke="#000" stroke-width="2"/><path d="M741.33 1238v-106h-115c0-2.76-2.24-5-5-5s-5 2.24-5 5H525c0-2.76-2.24-5-5-5s-5 2.24-5 5H299.5" stroke="#000" stroke-width="2" fill="none"/><path d="M742.33 1239h-2v-1.03h2z"/><path d="M284.24 1132l14.26-4.64v9.28z" stroke="#000" stroke-width="2"/><defs><path d="M190 0L58-211 59 0H30v-248h39L202-35l-2-213h31V0h-41" id="W"/><path d="M100-194c63 0 86 42 84 106H49c0 40 14 67 53 68 26 1 43-12 49-29l28 8c-11 28-37 45-77 45C44 4 14-33 15-96c1-61 26-98 85-98zm52 81c6-60-76-77-97-28-3 7-6 17-6 28h103" id="X"/><path d="M59-47c-2 24 18 29 38 22v24C64 9 27 4 27-40v-127H5v-23h24l9-43h21v43h35v23H59v120" id="Y"/><path d="M206 0h-36l-40-164L89 0H53L-1-190h32L70-26l43-164h34l41 164 42-164h31" id="Z"/><path d="M100-194c62-1 85 37 85 99 1 63-27 99-86 99S16-35 15-95c0-66 28-99 85-99zM99-20c44 1 53-31 53-75 0-43-8-75-51-75s-53 32-53 75 10 74 51 75" id="aa"/><path d="M114-163C36-179 61-72 57 0H25l-1-190h30c1 12-1 29 2 39 6-27 23-49 58-41v29" id="ab"/><path d="M143 0L79-87 56-68V0H24v-261h32v163l83-92h37l-77 82L181 0h-38" id="ac"/><path d="M33-154v-36h34v36H33zM33 0v-36h34V0H33" id="ad"/><g id="a"><use transform="matrix(0.05,0,0,0.05,0,0)" xlink:href="#W"/><use transform="matrix(0.05,0,0,0.05,12.950000000000001,0)" xlink:href="#X"/><use transform="matrix(0.05,0,0,0.05,22.950000000000003,0)" xlink:href="#Y"/><use transform="matrix(0.05,0,0,0.05,27.950000000000003,0)" xlink:href="#Z"/><use transform="matrix(0.05,0,0,0.05,40.900000000000006,0)" xlink:href="#aa"/><use transform="matrix(0.05,0,0,0.05,50.900000000000006,0)" xlink:href="#ab"/><use transform="matrix(0.05,0,0,0.05,56.85,0)" xlink:href="#ac"/><use transform="matrix(0.05,0,0,0.05,65.85000000000001,0)" xlink:href="#ad"/></g><path d="M115-194c55 1 70 41 70 98S169 2 115 4C84 4 66-9 55-30l1 105H24l-1-265h31l2 30c10-21 28-34 59-34zm-8 174c40 0 45-34 45-75s-6-73-45-74c-42 0-51 32-51 76 0 43 10 73 51 73" id="ae"/><path d="M117-194c89-4 53 116 60 194h-32v-121c0-31-8-49-39-48C34-167 62-67 57 0H25l-1-190h30c1 10-1 24 2 32 11-22 29-35 61-36" id="af"/><path d="M135-143c-3-34-86-38-87 0 15 53 115 12 119 90S17 21 10-45l28-5c4 36 97 45 98 0-10-56-113-15-118-90-4-57 82-63 122-42 12 7 21 19 24 35" id="ag"/><path d="M179-190L93 31C79 59 56 82 12 73V49c39 6 53-20 64-50L1-190h34L92-34l54-156h33" id="ah"/><path d="M-5 72V49h209v23H-5" id="ai"/><path d="M24 0v-261h32V0H24" id="aj"/><path d="M96-169c-40 0-48 33-48 73s9 75 48 75c24 0 41-14 43-38l32 2c-6 37-31 61-74 61-59 0-76-41-82-99-10-93 101-131 147-64 4 7 5 14 7 22l-32 3c-4-21-16-35-41-35" id="ak"/><path d="M85-194c31 0 48 13 60 33l-1-100h32l1 261h-30c-2-10 0-23-3-31C134-8 116 4 85 4 32 4 16-35 15-94c0-66 23-100 70-100zm9 24c-40 0-46 34-46 75 0 40 6 74 45 74 42 0 51-32 51-76 0-42-9-74-50-73" id="al"/><g id="b"><use transform="matrix(0.05,0,0,0.05,0,0)" xlink:href="#aa"/><use transform="matrix(0.05,0,0,0.05,10,0)" xlink:href="#ae"/><use transform="matrix(0.05,0,0,0.05,20,0)" xlink:href="#X"/><use transform="matrix(0.05,0,0,0.05,30,0)" xlink:href="#af"/><use transform="matrix(0.05,0,0,0.05,40,0)" xlink:href="#ag"/><use transform="matrix(0.05,0,0,0.05,49,0)" xlink:href="#X"/><use transform="matrix(0.05,0,0,0.05,59,0)" xlink:href="#af"/><use transform="matrix(0.05,0,0,0.05,69,0)" xlink:href="#Y"/><use transform="matrix(0.05,0,0,0.05,74,0)" xlink:href="#ab"/><use transform="matrix(0.05,0,0,0.05,79.95,0)" xlink:href="#ah"/><use transform="matrix(0.05,0,0,0.05,88.95,0)" xlink:href="#ai"/><use transform="matrix(0.05,0,0,0.05,98.95,0)" xlink:href="#aj"/><use transform="matrix(0.05,0,0,0.05,102.9,0)" xlink:href="#aa"/><use transform="matrix(0.05,0,0,0.05,112.9,0)" xlink:href="#ak"/><use transform="matrix(0.05,0,0,0.05,121.9,0)" xlink:href="#ac"/><use transform="matrix(0.05,0,0,0.05,130.9,0)" xlink:href="#al"/><use transform="matrix(0.05,0,0,0.05,140.9,0)" xlink:href="#aa"/><use transform="matrix(0.05,0,0,0.05,150.9,0)" xlink:href="#Z"/><use transform="matrix(0.05,0,0,0.05,163.85,0)" xlink:href="#af"/></g><path d="M33 0v-248h34V0H33" id="am"/><path d="M24-231v-30h32v30H24zM24 0v-190h32V0H24" id="an"/><g id="c"><use transform="matrix(0.05,0,0,0.05,0,0)" xlink:href="#am"/><use transform="matrix(0.05,0,0,0.05,5,0)" xlink:href="#al"/><use transform="matrix(0.05,0,0,0.05,15,0)" xlink:href="#X"/><use transform="matrix(0.05,0,0,0.05,25,0)" xlink:href="#af"/><use transform="matrix(0.05,0,0,0.05,35,0)" xlink:href="#Y"/><use transform="matrix(0.05,0,0,0.05,40,0)" xlink:href="#an"/><use transform="matrix(0.05,0,0,0.05,43.95,0)" xlink:href="#Y"/><use transform="matrix(0.05,0,0,0.05,48.95,0)" xlink:href="#ah"/></g><path d="M30-248c87 1 191-15 191 75 0 78-77 80-158 76V0H30v-248zm33 125c57 0 124 11 124-50 0-59-68-47-124-48v98" id="ao"/><path d="M108 0H70L1-190h34L89-25l56-165h34" id="ap"/><g id="d"><use transform="matrix(0.05,0,0,0.05,0,0)" xlink:href="#ao"/><use transform="matrix(0.05,0,0,0.05,12,0)" xlink:href="#ab"/><use transform="matrix(0.05,0,0,0.05,17.95,0)" xlink:href="#aa"/><use transform="matrix(0.05,0,0,0.05,27.950000000000003,0)" xlink:href="#ap"/><use transform="matrix(0.05,0,0,0.05,36.95,0)" xlink:href="#an"/><use transform="matrix(0.05,0,0,0.05,40.900000000000006,0)" xlink:href="#al"/><use transform="matrix(0.05,0,0,0.05,50.900000000000006,0)" xlink:href="#X"/><use transform="matrix(0.05,0,0,0.05,60.900000000000006,0)" xlink:href="#ab"/></g><path d="M6 0l48-248h52L58 0H6" id="aq"/><path d="M250-142C247-53 197 0 108 0H6l48-248c105-5 200 3 196 106zm-49 2c1-57-42-72-103-68L66-40c84 6 135-22 135-100" id="ar"/><path d="M241-173c-1 82-78 91-166 86L58 0H6l48-248c87 0 188-12 187 75zm-53 2c0-43-48-36-90-36l-15 80c50 0 105 7 105-44" id="as"/><g id="e"><use transform="matrix(0.05,0,0,0.05,0,0)" xlink:href="#aq"/><use transform="matrix(0.05,0,0,0.05,5,0)" xlink:href="#ar"/><use transform="matrix(0.05,0,0,0.05,17.950000000000003,0)" xlink:href="#as"/></g><path d="M185-189c-5-48-123-54-124 2 14 75 158 14 163 119 3 78-121 87-175 55-17-10-28-26-33-46l33-7c5 56 141 63 141-1 0-78-155-14-162-118-5-82 145-84 179-34 5 7 8 16 11 25" id="at"/><path d="M141-36C126-15 110 5 73 4 37 3 15-17 15-53c-1-64 63-63 125-63 3-35-9-54-41-54-24 1-41 7-42 31l-33-3c5-37 33-52 76-52 45 0 72 20 72 64v82c-1 20 7 32 28 27v20c-31 9-61-2-59-35zM48-53c0 20 12 33 32 33 41-3 63-29 60-74-43 2-92-5-92 41" id="au"/><path d="M177-190C167-65 218 103 67 71c-23-6-38-20-44-43l32-5c15 47 100 32 89-28v-30C133-14 115 1 83 1 29 1 15-40 15-95c0-56 16-97 71-98 29-1 48 16 59 35 1-10 0-23 2-32h30zM94-22c36 0 50-32 50-73 0-42-14-75-50-75-39 0-46 34-46 75s6 73 46 73" id="av"/><g id="f"><use transform="matrix(0.05,0,0,0.05,0,0)" xlink:href="#at"/><use transform="matrix(0.05,0,0,0.05,12,0)" xlink:href="#Y"/><use transform="matrix(0.05,0,0,0.05,17,0)" xlink:href="#aa"/><use transform="matrix(0.05,0,0,0.05,27,0)" xlink:href="#ab"/><use transform="matrix(0.05,0,0,0.05,32.95,0)" xlink:href="#au"/><use transform="matrix(0.05,0,0,0.05,42.95,0)" xlink:href="#av"/><use transform="matrix(0.05,0,0,0.05,52.95,0)" xlink:href="#X"/></g><path d="M155 0L90-199 52 0H6l48-248h62l66 201 38-201h46L218 0h-63" id="aw"/><path d="M114-194c63-2 87 48 72 110H63c-3 28 1 55 31 54 21-1 32-13 37-29l44 13C160-14 137 4 91 4 41 4 11-22 11-73c0-71 33-119 103-121zm30 77c14-47-50-61-67-22-3 6-6 13-8 22h75" id="ax"/><path d="M124-194c51 0 84 22 84 74C207-44 167 4 94 4 43 4 11-23 11-74c0-74 41-120 113-120zM99-30c46 0 58-42 58-86 0-27-11-44-37-44-44 0-55 40-57 84-1 27 10 45 36 46" id="ay"/><path d="M154-50L144 0H97l10-50H-6l7-37 126-161h65L161-87h33l-7 37h-33zm-40-37l27-125c-29 45-64 83-95 125h68" id="az"/><path d="M51-77c-1 38 59 57 67 15l29-145H98l7-41h101L172-74C175 7 45 32 13-37c-4-9-7-19-9-30" id="aA"/><g id="g"><use transform="matrix(0.05,0,0,0.05,0,0)" xlink:href="#aw"/><use transform="matrix(0.05,0,0,0.05,12.950000000000001,0)" xlink:href="#ax"/><use transform="matrix(0.05,0,0,0.05,22.950000000000003,0)" xlink:href="#ay"/><use transform="matrix(0.05,0,0,0.05,33.900000000000006,0)" xlink:href="#az"/><use transform="matrix(0.05,0,0,0.05,43.900000000000006,0)" xlink:href="#aA"/></g><path d="M205 0l-28-72H64L36 0H1l101-248h38L239 0h-34zm-38-99l-47-123c-12 45-31 82-46 123h93" id="aB"/><g id="h"><use transform="matrix(0.05,0,0,0.05,0,0)" xlink:href="#aB"/><use transform="matrix(0.05,0,0,0.05,12,0)" xlink:href="#ak"/><use transform="matrix(0.05,0,0,0.05,21,0)" xlink:href="#ak"/><use transform="matrix(0.05,0,0,0.05,30,0)" xlink:href="#X"/><use transform="matrix(0.05,0,0,0.05,40,0)" xlink:href="#ag"/><use transform="matrix(0.05,0,0,0.05,49,0)" xlink:href="#ag"/></g><path d="M234-2c-28 10-62 0-77-18C117 19 8 12 13-65c3-43 29-61 60-76-25-40-17-114 47-108 35 3 59 15 59 50 0 44-40 53-71 69 14 26 32 50 51 72 14-21 24-43 30-72l26 8c-9 33-21 57-38 82 13 13 33 22 57 15v23zM97-151c25-10 52-18 56-48-1-18-13-29-33-29-42 0-39 50-23 77zM42-66c-3 51 71 58 98 28-20-24-41-51-56-80-23 10-40 24-42 52" id="aC"/><use transform="matrix(0.05,0,0,0.05,0,0)" xlink:href="#aC" id="i"/><path d="M84 4C-5 8 30-112 23-190h32v120c0 31 7 50 39 49 72-2 45-101 50-169h31l1 190h-30c-1-10 1-25-2-33-11 22-28 36-60 37" id="aD"/><path d="M106-169C34-169 62-67 57 0H25v-261h32l-1 103c12-21 28-36 61-36 89 0 53 116 60 194h-32v-121c2-32-8-49-39-48" id="aE"/><path d="M9 0v-24l116-142H16v-24h144v24L44-24h123V0H9" id="aF"/><g id="j"><use transform="matrix(0.05,0,0,0.05,0,0)" xlink:href="#aB"/><use transform="matrix(0.05,0,0,0.05,12,0)" xlink:href="#aD"/><use transform="matrix(0.05,0,0,0.05,22,0)" xlink:href="#Y"/><use transform="matrix(0.05,0,0,0.05,27,0)" xlink:href="#aE"/><use transform="matrix(0.05,0,0,0.05,37,0)" xlink:href="#aa"/><use transform="matrix(0.05,0,0,0.05,47,0)" xlink:href="#ab"/><use transform="matrix(0.05,0,0,0.05,52.95,0)" xlink:href="#an"/><use transform="matrix(0.05,0,0,0.05,56.900000000000006,0)" xlink:href="#aF"/><use transform="matrix(0.05,0,0,0.05,65.9,0)" xlink:href="#au"/><use transform="matrix(0.05,0,0,0.05,75.9,0)" xlink:href="#Y"/><use transform="matrix(0.05,0,0,0.05,80.9,0)" xlink:href="#an"/><use transform="matrix(0.05,0,0,0.05,84.85000000000001,0)" xlink:href="#aa"/><use transform="matrix(0.05,0,0,0.05,94.85000000000001,0)" xlink:href="#af"/></g><path d="M183 0l-10-63H79L44 0H-7l138-248h61L234 0h-51zm-14-102l-15-108c-16 38-36 73-55 108h70" id="aG"/><g id="k"><use transform="matrix(0.05,0,0,0.05,0,0)" xlink:href="#aG"/><use transform="matrix(0.05,0,0,0.05,12.950000000000001,0)" xlink:href="#aG"/><use transform="matrix(0.05,0,0,0.05,25.900000000000002,0)" xlink:href="#as"/></g><path d="M212 0l43-212L151 0h-37L90-212C82-137 65-70 52 0H6l48-248h70l20 187 93-187h69L258 0h-46" id="aH"/><path d="M100 10C77 47 50 87-15 72l7-35c37 9 51-18 65-41L20-190h51L89-44l73-146h53" id="aI"/><path d="M178-136c88 48 22 151-73 140C49-3 12-15 4-64l51-9c1 50 111 53 115 3-16-63-132-20-133-112 0-93 190-91 199-10l-50 12c-4-41-93-50-97-4 7 38 59 32 89 48" id="aJ"/><path d="M23-63C-1-167 59-251 163-251c68 0 111 34 111 101 0 87-44 137-119 151 2 31 28 37 61 31l-8 34c-54 13-105-9-105-64-40-7-72-29-80-65zm197-70c4-46-15-77-59-77-65 0-88 46-91 108-2 41 22 65 60 65 60 0 84-40 90-96" id="aK"/><path d="M6 0l48-248h52L66-40h133l-8 40H6" id="aL"/><g id="l"><use transform="matrix(0.05,0,0,0.05,0,0)" xlink:href="#aH"/><use transform="matrix(0.05,0,0,0.05,14.950000000000001,0)" xlink:href="#aI"/><use transform="matrix(0.05,0,0,0.05,24.950000000000003,0)" xlink:href="#aJ"/><use transform="matrix(0.05,0,0,0.05,36.95,0)" xlink:href="#aK"/><use transform="matrix(0.05,0,0,0.05,50.95,0)" xlink:href="#aL"/></g><path d="M140-251c81 0 123 46 123 126C263-46 219 4 140 4 59 4 17-45 17-125s42-126 123-126zm0 227c63 0 89-41 89-101s-29-99-89-99c-61 0-89 39-89 99S79-25 140-24" id="aM"/><g id="m"><use transform="matrix(0.05,0,0,0.05,0,0)" xlink:href="#aM"/><use transform="matrix(0.05,0,0,0.05,14,0)" xlink:href="#aB"/><use transform="matrix(0.05,0,0,0.05,26,0)" xlink:href="#aD"/><use transform="matrix(0.05,0,0,0.05,36,0)" xlink:href="#Y"/><use transform="matrix(0.05,0,0,0.05,41,0)" xlink:href="#aE"/></g><path d="M18-101c0-91 52-150 145-150 68 0 111 34 111 101C274-54 221 4 128 4 59 4 18-33 18-101zm202-32c4-46-15-77-59-77-65 0-88 46-91 108-2 41 22 65 60 65 60 0 84-40 90-96" id="aN"/><path d="M84-151c13-25 34-51 72-40l-8 41C67-170 71-64 56 0H6l36-190h47" id="aO"/><g id="n"><use transform="matrix(0.05,0,0,0.05,0,0)" xlink:href="#aN"/><use transform="matrix(0.05,0,0,0.05,14,0)" xlink:href="#aO"/><use transform="matrix(0.05,0,0,0.05,21,0)" xlink:href="#aI"/></g><path d="M168 0l21-106H79L58 0H6l48-248h52l-19 99h110l19-99h50L218 0h-50" id="aP"/><path d="M132-28C118-9 101 4 69 4 30 4 10-23 10-62c0-70 24-129 92-132 31-1 47 14 56 35l19-102h49L179 0h-49zM62-69c0 22 7 39 29 39 45-2 54-45 57-90 2-27-10-40-33-40-44 0-53 48-53 91" id="aQ"/><path d="M166-52c-4 17 5 29 24 23l-3 27c-30 11-74 1-67-34C105-15 91 4 56 4 23 4 3-15 2-49c0-64 63-67 128-67 10-22 3-53-29-45-13 3-22 10-25 24l-46-5c5-64 156-77 153 0-1 33-11 60-17 90zM97-88c-44-9-64 57-19 57 31 0 42-28 47-57H97" id="aR"/><g id="o"><use transform="matrix(0.05,0,0,0.05,0,0)" xlink:href="#aP"/><use transform="matrix(0.05,0,0,0.05,12.950000000000001,0)" xlink:href="#aI"/><use transform="matrix(0.05,0,0,0.05,22.950000000000003,0)" xlink:href="#aQ"/><use transform="matrix(0.05,0,0,0.05,33.900000000000006,0)" xlink:href="#aO"/><use transform="matrix(0.05,0,0,0.05,40.900000000000006,0)" xlink:href="#aR"/></g><g id="p"><use transform="matrix(0.05,0,0,0.05,0,0)" xlink:href="#ao"/><use transform="matrix(0.05,0,0,0.05,12,0)" xlink:href="#ab"/><use transform="matrix(0.05,0,0,0.05,17.95,0)" xlink:href="#aa"/><use transform="matrix(0.05,0,0,0.05,27.950000000000003,0)" xlink:href="#ap"/><use transform="matrix(0.05,0,0,0.05,36.95,0)" xlink:href="#an"/><use transform="matrix(0.05,0,0,0.05,40.900000000000006,0)" xlink:href="#al"/><use transform="matrix(0.05,0,0,0.05,50.900000000000006,0)" xlink:href="#X"/><use transform="matrix(0.05,0,0,0.05,60.900000000000006,0)" xlink:href="#ab"/></g><path d="M232-93c-1 65-40 97-104 97C67 4 28-28 28-90v-158h33c8 89-33 224 67 224 102 0 64-133 71-224h33v155" id="aS"/><g id="q"><use transform="matrix(0.05,0,0,0.05,0,0)" xlink:href="#aS"/><use transform="matrix(0.05,0,0,0.05,12.950000000000001,0)" xlink:href="#am"/></g><path d="M76-105c-23 59 45 89 88 55 12-10 18-24 22-45l30-153h51C238-143 259 4 118 4 48 4 11-39 25-112l26-136h52" id="aT"/><g id="r"><use transform="matrix(0.04938271604938272,0,0,0.04938271604938272,0,0)" xlink:href="#aq"/><use transform="matrix(0.04938271604938272,0,0,0.04938271604938272,4.938271604938272,0)" xlink:href="#ar"/><use transform="matrix(0.04938271604938272,0,0,0.04938271604938272,17.7283950617284,0)" xlink:href="#as"/><use transform="matrix(0.04938271604938272,0,0,0.04938271604938272,29.580246913580254,0)" xlink:href="#aT"/><use transform="matrix(0.04938271604938272,0,0,0.04938271604938272,42.37037037037038,0)" xlink:href="#aq"/></g><g id="s"><use transform="matrix(0.04938271604938272,0,0,0.04938271604938272,0,0)" xlink:href="#aG"/><use transform="matrix(0.04938271604938272,0,0,0.04938271604938272,12.790123456790125,0)" xlink:href="#aG"/><use transform="matrix(0.04938271604938272,0,0,0.04938271604938272,25.58024691358025,0)" xlink:href="#as"/><use transform="matrix(0.04938271604938272,0,0,0.04938271604938272,37.4320987654321,0)" xlink:href="#aT"/><use transform="matrix(0.04938271604938272,0,0,0.04938271604938272,50.22222222222223,0)" xlink:href="#aq"/></g><path d="M30-248c118-7 216 8 213 122C240-48 200 0 122 0H30v-248zM63-27c89 8 146-16 146-99s-60-101-146-95v194" id="aU"/><path d="M115-194c53 0 69 39 70 98 0 66-23 100-70 100C84 3 66-7 56-30L54 0H23l1-261h32v101c10-23 28-34 59-34zm-8 174c40 0 45-34 45-75 0-40-5-75-45-74-42 0-51 32-51 76 0 43 10 73 51 73" id="aV"/><g id="t"><use transform="matrix(0.05,0,0,0.05,0,0)" xlink:href="#aU"/><use transform="matrix(0.05,0,0,0.05,12.950000000000001,0)" xlink:href="#au"/><use transform="matrix(0.05,0,0,0.05,22.950000000000003,0)" xlink:href="#ag"/><use transform="matrix(0.05,0,0,0.05,31.950000000000003,0)" xlink:href="#aE"/><use transform="matrix(0.05,0,0,0.05,41.95,0)" xlink:href="#aV"/><use transform="matrix(0.05,0,0,0.05,51.95,0)" xlink:href="#aa"/><use transform="matrix(0.05,0,0,0.05,61.95,0)" xlink:href="#ab"/><use transform="matrix(0.05,0,0,0.05,67.9,0)" xlink:href="#al"/></g><path d="M6 0l48-248h195l-8 40H98l-12 63h132l-7 40H79L66-40h150l-8 40H6" id="aW"/><g id="u"><use transform="matrix(0.04938271604938272,0,0,0.04938271604938272,0,0)" xlink:href="#aH"/><use transform="matrix(0.04938271604938272,0,0,0.04938271604938272,14.765432098765434,0)" xlink:href="#aW"/><use transform="matrix(0.04938271604938272,0,0,0.04938271604938272,26.617283950617285,0)" xlink:href="#aT"/><use transform="matrix(0.04938271604938272,0,0,0.04938271604938272,39.40740740740741,0)" xlink:href="#aq"/></g><g id="v"><use transform="matrix(0.05,0,0,0.05,0,0)" xlink:href="#aa"/><use transform="matrix(0.05,0,0,0.05,10,0)" xlink:href="#ae"/><use transform="matrix(0.05,0,0,0.05,20,0)" xlink:href="#X"/><use transform="matrix(0.05,0,0,0.05,30,0)" xlink:href="#af"/><use transform="matrix(0.05,0,0,0.05,40,0)" xlink:href="#ag"/><use transform="matrix(0.05,0,0,0.05,49,0)" xlink:href="#X"/><use transform="matrix(0.05,0,0,0.05,59,0)" xlink:href="#af"/><use transform="matrix(0.05,0,0,0.05,69,0)" xlink:href="#Y"/><use transform="matrix(0.05,0,0,0.05,74,0)" xlink:href="#ab"/><use transform="matrix(0.05,0,0,0.05,79.95,0)" xlink:href="#ah"/><use transform="matrix(0.05,0,0,0.05,88.95,0)" xlink:href="#ai"/><use transform="matrix(0.05,0,0,0.05,98.95,0)" xlink:href="#Y"/><use transform="matrix(0.05,0,0,0.05,103.95,0)" xlink:href="#ab"/><use transform="matrix(0.05,0,0,0.05,109.9,0)" xlink:href="#aD"/><use transform="matrix(0.05,0,0,0.05,119.9,0)" xlink:href="#ag"/><use transform="matrix(0.05,0,0,0.05,128.9,0)" xlink:href="#Y"/><use transform="matrix(0.05,0,0,0.05,133.9,0)" xlink:href="#X"/><use transform="matrix(0.05,0,0,0.05,143.9,0)" xlink:href="#al"/></g><g id="w"><use transform="matrix(0.05,0,0,0.05,0,0)" xlink:href="#am"/><use transform="matrix(0.05,0,0,0.05,5,0)" xlink:href="#af"/><use transform="matrix(0.05,0,0,0.05,15,0)" xlink:href="#Y"/><use transform="matrix(0.05,0,0,0.05,20,0)" xlink:href="#X"/><use transform="matrix(0.05,0,0,0.05,30,0)" xlink:href="#ab"/><use transform="matrix(0.05,0,0,0.05,35.95,0)" xlink:href="#af"/><use transform="matrix(0.05,0,0,0.05,45.95,0)" xlink:href="#X"/><use transform="matrix(0.05,0,0,0.05,55.95,0)" xlink:href="#Y"/></g><path d="M64 0c3-98 48-159 88-221H18v-27h164v26C143-157 98-101 97 0H64" id="aX"/><path d="M110-160c48 1 74 30 74 79 0 53-28 85-80 85-65 0-83-55-86-122-5-90 50-162 133-122 14 7 22 21 27 39l-31 6c-5-40-67-38-82-6-9 19-15 44-15 74 11-20 30-34 60-33zm-7 138c34 0 49-23 49-58s-16-56-50-56c-29 0-50 16-49 49 1 36 15 65 50 65" id="aY"/><path d="M134-131c28 9 52 24 51 62-1 50-34 73-85 73S17-19 16-69c0-36 21-54 49-61-75-25-45-126 34-121 46 3 78 18 79 63 0 33-17 51-44 57zm-34-11c31 1 46-15 46-44 0-28-17-43-47-42-29 0-46 13-45 42 1 28 16 44 46 44zm1 122c35 0 51-18 51-52 0-30-18-46-53-46-33 0-51 17-51 47 0 34 19 51 53 51" id="aZ"/><g id="x"><use transform="matrix(0.05,0,0,0.05,0,0)" xlink:href="#ad"/><use transform="matrix(0.05,0,0,0.05,5,0)" xlink:href="#aX"/><use transform="matrix(0.05,0,0,0.05,15,0)" xlink:href="#aY"/><use transform="matrix(0.05,0,0,0.05,25,0)" xlink:href="#aZ"/><use transform="matrix(0.05,0,0,0.05,35,0)" xlink:href="#aX"/></g><path d="M87 75C49 33 22-17 22-94c0-76 28-126 65-167h31c-38 41-64 92-64 168S80 34 118 75H87" id="ba"/><path d="M33-261c38 41 65 92 65 168S71 34 33 75H2C39 34 66-17 66-93S39-220 2-261h31" id="bb"/><g id="y"><use transform="matrix(0.05,0,0,0.05,0,0)" xlink:href="#ba"/><use transform="matrix(0.05,0,0,0.05,5.95,0)" xlink:href="#aV"/><use transform="matrix(0.05,0,0,0.05,15.949999999999998,0)" xlink:href="#aa"/><use transform="matrix(0.05,0,0,0.05,25.950000000000003,0)" xlink:href="#aj"/><use transform="matrix(0.05,0,0,0.05,29.899999999999995,0)" xlink:href="#Y"/><use transform="matrix(0.05,0,0,0.05,34.9,0)" xlink:href="#bb"/></g><path d="M126-127c33 6 58 20 58 59 0 88-139 92-164 29-3-8-5-16-6-25l32-3c6 27 21 44 54 44 32 0 52-15 52-46 0-38-36-46-79-43v-28c39 1 72-4 72-42 0-27-17-43-46-43-28 0-47 15-49 41l-32-3c6-42 35-63 81-64 48-1 79 21 79 65 0 36-21 52-52 59" id="bc"/><path d="M101-251c68 0 85 55 85 127S166 4 100 4C33 4 14-52 14-124c0-73 17-127 87-127zm-1 229c47 0 54-49 54-102s-4-102-53-102c-51 0-55 48-55 102 0 53 5 102 54 102" id="bd"/><g id="z"><use transform="matrix(0.05,0,0,0.05,0,0)" xlink:href="#ad"/><use transform="matrix(0.05,0,0,0.05,5,0)" xlink:href="#bc"/><use transform="matrix(0.05,0,0,0.05,15,0)" xlink:href="#bc"/><use transform="matrix(0.05,0,0,0.05,25,0)" xlink:href="#bd"/><use transform="matrix(0.05,0,0,0.05,35,0)" xlink:href="#aY"/></g><path d="M233-177c-1 41-23 64-60 70L243 0h-38l-65-103H63V0H30v-248c88 3 205-21 203 71zM63-129c60-2 137 13 137-47 0-61-80-42-137-45v92" id="be"/><g id="A"><use transform="matrix(0.05,0,0,0.05,0,0)" xlink:href="#be"/><use transform="matrix(0.05,0,0,0.05,12.950000000000001,0)" xlink:href="#X"/><use transform="matrix(0.05,0,0,0.05,22.950000000000003,0)" xlink:href="#ap"/><use transform="matrix(0.05,0,0,0.05,31.950000000000003,0)" xlink:href="#X"/><use transform="matrix(0.05,0,0,0.05,41.95,0)" xlink:href="#ab"/><use transform="matrix(0.05,0,0,0.05,47.900000000000006,0)" xlink:href="#ag"/><use transform="matrix(0.05,0,0,0.05,56.900000000000006,0)" xlink:href="#X"/></g><path d="M141 0L90-78 38 0H4l68-98-65-92h35l48 74 47-74h35l-64 92 68 98h-35" id="bf"/><g id="B"><use transform="matrix(0.05,0,0,0.05,0,0)" xlink:href="#ao"/><use transform="matrix(0.05,0,0,0.05,12,0)" xlink:href="#ab"/><use transform="matrix(0.05,0,0,0.05,17.95,0)" xlink:href="#aa"/><use transform="matrix(0.05,0,0,0.05,27.950000000000003,0)" xlink:href="#bf"/><use transform="matrix(0.05,0,0,0.05,36.95,0)" xlink:href="#ah"/></g><g id="C"><use transform="matrix(0.04938271604938272,0,0,0.04938271604938272,0,0)" xlink:href="#aN"/><use transform="matrix(0.04938271604938272,0,0,0.04938271604938272,13.827160493827162,0)" xlink:href="#aO"/><use transform="matrix(0.04938271604938272,0,0,0.04938271604938272,20.74074074074074,0)" xlink:href="#aI"/></g><path d="M72-63c-8 23 5 39 32 30L98-1C54 14 12-6 23-64l18-93H15l7-33h28l24-45h31l-8 45h35l-6 33H90" id="bg"/><path d="M150-105c8-23 8-54-22-51-68 7-54 98-72 156H6l50-261h50L85-158c15-20 33-36 66-36 95 0 34 128 28 194h-49" id="bh"/><path d="M128 0L95-87 70-74 55 0H6l51-261h49L77-111l82-79h56l-83 74L180 0h-52" id="bi"/><path d="M156-122c2-23-7-37-28-37-47 0-58 44-58 89 0 24 12 40 36 40 43 0 47-49 50-92zM-8 75l50-265h48c0 10-3 24-3 30 22-50 127-45 121 29-6 73-21 135-92 135-29 0-46-14-55-35L41 75H-8" id="bj"/><g id="D"><use transform="matrix(0.04938271604938272,0,0,0.04938271604938272,0,0)" xlink:href="#aN"/><use transform="matrix(0.04938271604938272,0,0,0.04938271604938272,13.827160493827162,0)" xlink:href="#aR"/><use transform="matrix(0.04938271604938272,0,0,0.04938271604938272,23.703703703703706,0)" xlink:href="#bg"/><use transform="matrix(0.04938271604938272,0,0,0.04938271604938272,29.58024691358025,0)" xlink:href="#bh"/><use transform="matrix(0.04938271604938272,0,0,0.04938271604938272,40.39506172839506,0)" xlink:href="#bi"/><use transform="matrix(0.04938271604938272,0,0,0.04938271604938272,50.27160493827161,0)" xlink:href="#ax"/><use transform="matrix(0.04938271604938272,0,0,0.04938271604938272,60.14814814814815,0)" xlink:href="#ax"/><use transform="matrix(0.04938271604938272,0,0,0.04938271604938272,70.0246913580247,0)" xlink:href="#bj"/><use transform="matrix(0.04938271604938272,0,0,0.04938271604938272,80.8395061728395,0)" xlink:href="#ax"/><use transform="matrix(0.04938271604938272,0,0,0.04938271604938272,90.71604938271605,0)" xlink:href="#aO"/></g><path d="M155-56V0h-30v-56H8v-25l114-167h33v167h35v25h-35zm-30-156c-27 46-58 90-88 131h88v-131" id="bk"/><g id="E"><use transform="matrix(0.05,0,0,0.05,0,0)" xlink:href="#ad"/><use transform="matrix(0.05,0,0,0.05,5,0)" xlink:href="#bk"/><use transform="matrix(0.05,0,0,0.05,15,0)" xlink:href="#bk"/><use transform="matrix(0.05,0,0,0.05,25,0)" xlink:href="#bc"/></g><path d="M54-142c48-35 137-8 131 61C196 18 31 33 14-55l32-4c7 23 22 37 52 37 35-1 51-22 54-58 4-55-73-65-99-34H22l8-134h141v27H59" id="bl"/><g id="F"><use transform="matrix(0.05,0,0,0.05,0,0)" xlink:href="#ad"/><use transform="matrix(0.05,0,0,0.05,5,0)" xlink:href="#bk"/><use transform="matrix(0.05,0,0,0.05,15,0)" xlink:href="#bk"/><use transform="matrix(0.05,0,0,0.05,25,0)" xlink:href="#bk"/><use transform="matrix(0.05,0,0,0.05,35,0)" xlink:href="#bl"/></g><g id="G"><use transform="matrix(0.05,0,0,0.05,0,0)" xlink:href="#am"/><use transform="matrix(0.05,0,0,0.05,5,0)" xlink:href="#al"/><use transform="matrix(0.05,0,0,0.05,15,0)" xlink:href="#ae"/></g><g id="H"><use transform="matrix(0.05,0,0,0.05,0,0)" xlink:href="#X"/><use transform="matrix(0.05,0,0,0.05,10,0)" xlink:href="#af"/><use transform="matrix(0.05,0,0,0.05,20,0)" xlink:href="#al"/><use transform="matrix(0.05,0,0,0.05,30,0)" xlink:href="#ae"/><use transform="matrix(0.05,0,0,0.05,40,0)" xlink:href="#aa"/><use transform="matrix(0.05,0,0,0.05,50,0)" xlink:href="#an"/><use transform="matrix(0.05,0,0,0.05,53.95,0)" xlink:href="#af"/><use transform="matrix(0.05,0,0,0.05,63.95,0)" xlink:href="#Y"/><use transform="matrix(0.05,0,0,0.05,68.95,0)" xlink:href="#ag"/></g><g id="I"><use transform="matrix(0.05,0,0,0.05,0,0)" xlink:href="#aB"/><use transform="matrix(0.05,0,0,0.05,12,0)" xlink:href="#au"/><use transform="matrix(0.05,0,0,0.05,22,0)" xlink:href="#ae"/></g><path d="M212-179c-10-28-35-45-73-45-59 0-87 40-87 99 0 60 29 101 89 101 43 0 62-24 78-52l27 14C228-24 195 4 139 4 59 4 22-46 18-125c-6-104 99-153 187-111 19 9 31 26 39 46" id="bm"/><path d="M101-234c-31-9-42 10-38 44h38v23H63V0H32v-167H5v-23h27c-7-52 17-82 69-68v24" id="bn"/><g id="J"><use transform="matrix(0.05,0,0,0.05,0,0)" xlink:href="#bm"/><use transform="matrix(0.05,0,0,0.05,12.950000000000001,0)" xlink:href="#X"/><use transform="matrix(0.05,0,0,0.05,22.950000000000003,0)" xlink:href="#ab"/><use transform="matrix(0.05,0,0,0.05,28.900000000000002,0)" xlink:href="#Y"/><use transform="matrix(0.05,0,0,0.05,33.900000000000006,0)" xlink:href="#an"/><use transform="matrix(0.05,0,0,0.05,37.85000000000001,0)" xlink:href="#bn"/><use transform="matrix(0.05,0,0,0.05,42.85000000000001,0)" xlink:href="#an"/><use transform="matrix(0.05,0,0,0.05,46.80000000000001,0)" xlink:href="#ak"/><use transform="matrix(0.05,0,0,0.05,55.80000000000001,0)" xlink:href="#au"/><use transform="matrix(0.05,0,0,0.05,65.80000000000001,0)" xlink:href="#Y"/><use transform="matrix(0.05,0,0,0.05,70.80000000000001,0)" xlink:href="#X"/></g><g id="K"><use transform="matrix(0.05,0,0,0.05,0,0)" xlink:href="#aB"/><use transform="matrix(0.05,0,0,0.05,12,0)" xlink:href="#aB"/><use transform="matrix(0.05,0,0,0.05,24,0)" xlink:href="#ao"/></g><g id="L"><use transform="matrix(0.05,0,0,0.05,0,0)" xlink:href="#am"/><use transform="matrix(0.05,0,0,0.05,5,0)" xlink:href="#aU"/><use transform="matrix(0.05,0,0,0.05,17.950000000000003,0)" xlink:href="#ao"/></g><g id="M"><use transform="matrix(0.05,0,0,0.05,0,0)" xlink:href="#aM"/><use transform="matrix(0.05,0,0,0.05,14,0)" xlink:href="#ab"/><use transform="matrix(0.05,0,0,0.05,19.95,0)" xlink:href="#ah"/></g><path d="M197 0v-115H63V0H30v-248h33v105h134v-105h34V0h-34" id="bo"/><g id="N"><use transform="matrix(0.05,0,0,0.05,0,0)" xlink:href="#bo"/><use transform="matrix(0.05,0,0,0.05,12.950000000000001,0)" xlink:href="#ah"/><use transform="matrix(0.05,0,0,0.05,21.950000000000003,0)" xlink:href="#al"/><use transform="matrix(0.05,0,0,0.05,31.950000000000003,0)" xlink:href="#ab"/><use transform="matrix(0.05,0,0,0.05,37.900000000000006,0)" xlink:href="#au"/></g><g id="O"><use transform="matrix(0.05,0,0,0.05,0,0)" xlink:href="#am"/><use transform="matrix(0.05,0,0,0.05,5,0)" xlink:href="#aU"/><use transform="matrix(0.05,0,0,0.05,17.950000000000003,0)" xlink:href="#ao"/><use transform="matrix(0.05,0,0,0.05,29.950000000000003,0)" xlink:href="#aS"/><use transform="matrix(0.05,0,0,0.05,42.900000000000006,0)" xlink:href="#am"/></g><g id="P"><use transform="matrix(0.05,0,0,0.05,0,0)" xlink:href="#aB"/><use transform="matrix(0.05,0,0,0.05,12,0)" xlink:href="#aB"/><use transform="matrix(0.05,0,0,0.05,24,0)" xlink:href="#ao"/><use transform="matrix(0.05,0,0,0.05,36,0)" xlink:href="#aS"/><use transform="matrix(0.05,0,0,0.05,48.95,0)" xlink:href="#am"/></g><path d="M30 0v-248h33v221h125V0H30" id="bp"/><g id="Q"><use transform="matrix(0.05,0,0,0.05,0,0)" xlink:href="#bp"/><use transform="matrix(0.05,0,0,0.05,10,0)" xlink:href="#X"/><use transform="matrix(0.05,0,0,0.05,20,0)" xlink:href="#Y"/><use transform="matrix(0.05,0,0,0.05,25,0)" xlink:href="#ag"/><use transform="matrix(0.05,0,0,0.05,34,0)" xlink:href="#X"/><use transform="matrix(0.05,0,0,0.05,44,0)" xlink:href="#af"/><use transform="matrix(0.05,0,0,0.05,54,0)" xlink:href="#ak"/><use transform="matrix(0.05,0,0,0.05,63,0)" xlink:href="#ab"/><use transform="matrix(0.05,0,0,0.05,68.95,0)" xlink:href="#ah"/><use transform="matrix(0.05,0,0,0.05,77.95,0)" xlink:href="#ae"/><use transform="matrix(0.05,0,0,0.05,87.95,0)" xlink:href="#Y"/></g><path d="M101-251c82-7 93 87 43 132L82-64C71-53 59-42 53-27h129V0H18c2-99 128-94 128-182 0-28-16-43-45-43s-46 15-49 41l-32-3c6-41 34-60 81-64" id="bq"/><g id="R"><use transform="matrix(0.05,0,0,0.05,0,0)" xlink:href="#aM"/><use transform="matrix(0.05,0,0,0.05,14,0)" xlink:href="#aB"/><use transform="matrix(0.05,0,0,0.05,26,0)" xlink:href="#aD"/><use transform="matrix(0.05,0,0,0.05,36,0)" xlink:href="#Y"/><use transform="matrix(0.05,0,0,0.05,41,0)" xlink:href="#aE"/><use transform="matrix(0.05,0,0,0.05,51,0)" xlink:href="#bq"/></g><path d="M240 0l2-218c-23 76-54 145-80 218h-23L58-218 59 0H30v-248h44l77 211c21-75 51-140 76-211h43V0h-30" id="br"/><g id="S"><use transform="matrix(0.05,0,0,0.05,0,0)" xlink:href="#br"/><use transform="matrix(0.05,0,0,0.05,14.950000000000001,0)" xlink:href="#X"/><use transform="matrix(0.05,0,0,0.05,24.950000000000003,0)" xlink:href="#ag"/><use transform="matrix(0.05,0,0,0.05,33.95,0)" xlink:href="#ag"/><use transform="matrix(0.05,0,0,0.05,42.95,0)" xlink:href="#au"/><use transform="matrix(0.05,0,0,0.05,52.95,0)" xlink:href="#av"/><use transform="matrix(0.05,0,0,0.05,62.95,0)" xlink:href="#an"/><use transform="matrix(0.05,0,0,0.05,66.9,0)" xlink:href="#af"/><use transform="matrix(0.05,0,0,0.05,76.9,0)" xlink:href="#av"/></g><path d="M210-169c-67 3-38 105-44 169h-31v-121c0-29-5-50-35-48C34-165 62-65 56 0H25l-1-190h30c1 10-1 24 2 32 10-44 99-50 107 0 11-21 27-35 58-36 85-2 47 119 55 194h-31v-121c0-29-5-49-35-48" id="bs"/><g id="T"><use transform="matrix(0.05,0,0,0.05,0,0)" xlink:href="#at"/><use transform="matrix(0.05,0,0,0.05,12,0)" xlink:href="#ah"/><use transform="matrix(0.05,0,0,0.05,21,0)" xlink:href="#ag"/><use transform="matrix(0.05,0,0,0.05,30,0)" xlink:href="#Y"/><use transform="matrix(0.05,0,0,0.05,35,0)" xlink:href="#X"/><use transform="matrix(0.05,0,0,0.05,45,0)" xlink:href="#bs"/></g><path d="M157-208L117 0H65l40-208H25l8-40h212l-8 40h-80" id="bt"/><g id="U"><use transform="matrix(0.05,0,0,0.05,0,0)" xlink:href="#aw"/><use transform="matrix(0.05,0,0,0.05,12.950000000000001,0)" xlink:href="#aG"/><use transform="matrix(0.05,0,0,0.05,24.550000000000004,0)" xlink:href="#bt"/><use transform="matrix(0.05,0,0,0.05,35.50000000000001,0)" xlink:href="#aJ"/></g><g id="V"><use transform="matrix(0.05,0,0,0.05,0,0)" xlink:href="#ad"/><use transform="matrix(0.05,0,0,0.05,5,0)" xlink:href="#bk"/><use transform="matrix(0.05,0,0,0.05,15,0)" xlink:href="#bq"/><use transform="matrix(0.05,0,0,0.05,25,0)" xlink:href="#bq"/><use transform="matrix(0.05,0,0,0.05,35,0)" xlink:href="#bq"/></g></defs></g></svg>